<svg width="13" height="12" viewBox="0 0 13 12" fill="none" xmlns="http://www.w3.org/2000/svg">
<path d="M2.00033 12C1.62426 12 1.30802 11.8718 1.05161 11.6154C0.795198 11.359 0.666992 11.0427 0.666992 10.6667V8.82052H2.66699V0H11.3337V5.2718C11.2225 5.25898 11.1108 5.25727 10.9984 5.26667C10.886 5.27607 10.7755 5.29957 10.667 5.33718V0.666667H3.33366V8.82052H6.74393L6.07724 9.48718H1.33366V10.6667C1.33366 10.8556 1.39755 11.0139 1.52533 11.1417C1.6531 11.2694 1.81144 11.3333 2.00033 11.3333H5.74391V12H2.00033ZM7.33366 12V10.4731L10.0721 7.73462L10.4939 8.14358L7.92341 10.7102V11.4103H8.62341L11.1939 8.84358L11.6119 9.26155L8.87341 12H7.33366ZM11.6119 9.26155L10.0721 7.73462L10.8157 6.99102C10.9208 6.89444 11.0486 6.84615 11.199 6.84615C11.3495 6.84615 11.473 6.89444 11.5696 6.99102L12.3555 7.77692C12.452 7.87351 12.5003 7.99701 12.5003 8.14743C12.5003 8.29787 12.452 8.42565 12.3555 8.53077L11.6119 9.26155ZM4.25674 3.58975V2.92308H9.74391V3.58975H4.25674ZM4.25674 5.4359V4.76923H9.74391V5.4359H4.25674Z" fill="#1C1B1F"/>
</svg>
