<svg width="14" height="10" viewBox="0 0 14 10" fill="none" xmlns="http://www.w3.org/2000/svg">
<path d="M8.25609 3.3948V2.77428C8.6142 2.5931 8.99775 2.4572 9.40672 2.3666C9.8157 2.276 10.2356 2.2307 10.6663 2.2307C10.9125 2.2307 11.1488 2.24651 11.3753 2.27813C11.6018 2.30976 11.8356 2.35463 12.0766 2.41275V3.01788C11.8441 2.94353 11.6174 2.89203 11.3965 2.8634C11.1755 2.83477 10.9322 2.82045 10.6663 2.82045C10.2356 2.82045 9.81506 2.86896 9.40481 2.96597C8.99455 3.06297 8.61165 3.20591 8.25609 3.3948ZM8.25609 7.03583V6.38968C8.59711 6.20848 8.97852 6.07258 9.40031 5.98198C9.82211 5.89138 10.2441 5.84608 10.6663 5.84608C10.9125 5.84608 11.1488 5.8619 11.3753 5.89352C11.6018 5.92514 11.8356 5.97001 12.0766 6.02813V6.63327C11.8441 6.55891 11.6174 6.50742 11.3965 6.47878C11.1755 6.45015 10.9322 6.43583 10.6663 6.43583C10.2356 6.43583 9.81506 6.48797 9.40481 6.59225C8.99455 6.69652 8.61165 6.84438 8.25609 7.03583ZM8.25609 5.22813V4.58198C8.6142 4.40078 8.99775 4.26488 9.40672 4.17428C9.8157 4.0837 10.2356 4.0384 10.6663 4.0384C10.9125 4.0384 11.1488 4.05421 11.3753 4.08583C11.6018 4.11746 11.8356 4.16233 12.0766 4.22045V4.82558C11.8441 4.75122 11.6174 4.69972 11.3965 4.67108C11.1755 4.64245 10.9322 4.62813 10.6663 4.62813C10.2356 4.62813 9.81506 4.68091 9.40481 4.78647C8.99455 4.89202 8.61165 5.03925 8.25609 5.22813ZM3.33301 7.69223C3.91506 7.69223 4.48109 7.75912 5.03109 7.89288C5.58109 8.02664 6.12617 8.24437 6.66634 8.54608V2.00507C6.18514 1.66148 5.6548 1.40378 5.07531 1.23198C4.49583 1.06019 3.91506 0.9743 3.33301 0.9743C2.93301 0.9743 2.58279 0.998228 2.28236 1.04608C1.98194 1.09395 1.64839 1.18284 1.28172 1.31275C1.17916 1.34694 1.10651 1.39608 1.06377 1.46018C1.02104 1.52429 0.999674 1.59481 0.999674 1.67173V7.68198C0.999674 7.80164 1.04241 7.88925 1.12787 7.9448C1.21335 8.00036 1.30737 8.00677 1.40992 7.96403C1.65351 7.88199 1.93492 7.81618 2.25416 7.7666C2.57339 7.71702 2.93301 7.69223 3.33301 7.69223ZM7.33301 8.54608C7.87317 8.24437 8.41826 8.02664 8.96826 7.89288C9.51826 7.75912 10.0843 7.69223 10.6663 7.69223C11.0663 7.69223 11.426 7.71702 11.7452 7.7666C12.0644 7.81618 12.3458 7.88199 12.5894 7.96403C12.692 8.00677 12.786 8.00036 12.8715 7.9448C12.9569 7.88925 12.9997 7.80164 12.9997 7.68198V1.67173C12.9997 1.59481 12.9783 1.52643 12.9356 1.4666C12.8928 1.40677 12.8202 1.35548 12.7176 1.31275C12.351 1.18284 12.0174 1.09395 11.717 1.04608C11.4166 0.998228 11.0663 0.9743 10.6663 0.9743C10.0843 0.9743 9.50352 1.06019 8.92404 1.23198C8.34455 1.40378 7.81421 1.66148 7.33301 2.00507V8.54608ZM6.99967 9.51277C6.4578 9.14182 5.87575 8.85678 5.25352 8.65763C4.6313 8.45849 3.99113 8.35892 3.33301 8.35892C2.986 8.35892 2.64519 8.38798 2.31057 8.4461C1.97595 8.50421 1.6501 8.59737 1.33301 8.72558C1.09113 8.82216 0.863991 8.7931 0.651591 8.6384C0.439202 8.4837 0.333008 8.27003 0.333008 7.99738V1.55378C0.333008 1.38882 0.37638 1.23582 0.463124 1.0948C0.54988 0.953779 0.671463 0.855489 0.827874 0.799934C1.21933 0.627278 1.6266 0.502062 2.04967 0.424284C2.47275 0.346506 2.90053 0.307617 3.33301 0.307617C3.986 0.307617 4.62296 0.401633 5.24391 0.589667C5.86484 0.7777 6.4501 1.05121 6.99967 1.41018C7.54925 1.05121 8.13451 0.7777 8.75544 0.589667C9.37639 0.401633 10.0134 0.307617 10.6663 0.307617C11.0988 0.307617 11.5266 0.346506 11.9497 0.424284C12.3728 0.502062 12.78 0.627278 13.1715 0.799934C13.3279 0.855489 13.4495 0.953779 13.5362 1.0948C13.623 1.23582 13.6663 1.38882 13.6663 1.55378V7.99738C13.6663 8.27003 13.5516 8.47943 13.3221 8.62558C13.0926 8.77174 12.8484 8.79652 12.5894 8.69993C12.2809 8.58028 11.9657 8.49353 11.6439 8.43968C11.3221 8.38584 10.9963 8.35892 10.6663 8.35892C10.0082 8.35892 9.36805 8.45849 8.74582 8.65763C8.1236 8.85678 7.54155 9.14182 6.99967 9.51277Z" fill="#1C1B1F"/>
</svg>
