<svg width="64" height="26" viewBox="0 0 64 26" fill="none" xmlns="http://www.w3.org/2000/svg">
<rect x="0.5" y="0.5" width="63" height="25" rx="12.5" fill="url(#paint0_linear_402_7118)"/>
<rect x="0.5" y="0.5" width="63" height="25" rx="12.5" stroke="#F3F3F3"/>
<rect x="1" y="1" width="24" height="24" rx="12" fill="#CAEAFE"/>
<mask id="mask0_402_7118" style="mask-type:alpha" maskUnits="userSpaceOnUse" x="5" y="5" width="16" height="16">
<rect x="5" y="5" width="16" height="16" fill="#D9D9D9"/>
</mask>
<g mask="url(#mask0_402_7118)">
<path d="M8.99984 19C8.62377 19 8.30753 18.8718 8.05112 18.6154C7.79471 18.359 7.6665 18.0427 7.6665 17.6667V15.8205H9.6665V7H18.3332V12.2718C18.2221 12.259 18.1103 12.2573 17.9979 12.2667C17.8855 12.2761 17.775 12.2996 17.6665 12.3372V7.66667H10.3332V15.8205H13.7434L13.0768 16.4872H8.33317V17.6667C8.33317 17.8556 8.39706 18.0139 8.52484 18.1417C8.65261 18.2694 8.81095 18.3333 8.99984 18.3333H12.7434V19H8.99984ZM14.3332 19V17.4731L17.0716 14.7346L17.4934 15.1436L14.9229 17.7102V18.4103H15.6229L18.1934 15.8436L18.6114 16.2616L15.8729 19H14.3332ZM18.6114 16.2616L17.0716 14.7346L17.8152 13.991C17.9204 13.8944 18.0481 13.8462 18.1986 13.8462C18.349 13.8462 18.4725 13.8944 18.5691 13.991L19.355 14.7769C19.4515 14.8735 19.4998 14.997 19.4998 15.1474C19.4998 15.2979 19.4515 15.4256 19.355 15.5308L18.6114 16.2616ZM11.2563 10.5898V9.92308H16.7434V10.5898H11.2563ZM11.2563 12.4359V11.7692H16.7434V12.4359H11.2563Z" fill="#1C1B1F"/>
</g>
<path d="M34.3672 12.3477H35.082C35.5195 12.3477 35.8848 12.2734 36.1777 12.125C36.4746 11.9727 36.6973 11.7715 36.8457 11.5215C36.998 11.2715 37.0742 10.9941 37.0742 10.6895C37.0742 10.3457 37.0098 10.0449 36.8809 9.78711C36.752 9.52539 36.5547 9.32227 36.2891 9.17773C36.0273 9.0293 35.6914 8.95508 35.2812 8.95508C34.9219 8.95508 34.6016 9.02539 34.3203 9.16602C34.0391 9.30664 33.8164 9.50781 33.6523 9.76953C33.4883 10.0312 33.4062 10.3438 33.4062 10.707H32.709C32.709 10.2422 32.8203 9.83398 33.043 9.48242C33.2656 9.12695 33.5723 8.84961 33.9629 8.65039C34.3535 8.45117 34.793 8.35156 35.2812 8.35156C35.7852 8.35156 36.2227 8.44336 36.5938 8.62695C36.9688 8.81055 37.2578 9.07812 37.4609 9.42969C37.668 9.78125 37.7715 10.209 37.7715 10.7129C37.7715 10.9707 37.7148 11.2246 37.6016 11.4746C37.4922 11.7246 37.3281 11.9512 37.1094 12.1543C36.8906 12.3535 36.6191 12.5137 36.2949 12.6348C35.9707 12.7559 35.5938 12.8164 35.1641 12.8164H34.3672V12.3477ZM34.3672 12.9512V12.4883H35.1641C35.6523 12.4883 36.0703 12.5449 36.418 12.6582C36.7656 12.7676 37.0508 12.9238 37.2734 13.127C37.5 13.3262 37.666 13.5586 37.7715 13.8242C37.877 14.0898 37.9297 14.375 37.9297 14.6797C37.9297 15.0703 37.8652 15.416 37.7363 15.7168C37.6074 16.0176 37.4238 16.2734 37.1855 16.4844C36.9512 16.6914 36.6738 16.8496 36.3535 16.959C36.0371 17.0645 35.6895 17.1172 35.3105 17.1172C34.9668 17.1172 34.6309 17.0664 34.3027 16.9648C33.9785 16.8633 33.6855 16.7129 33.4238 16.5137C33.166 16.3105 32.9609 16.0566 32.8086 15.752C32.6562 15.4434 32.5801 15.0879 32.5801 14.6855H33.2773C33.2773 15.0449 33.3633 15.3633 33.5352 15.6406C33.707 15.9141 33.9453 16.1289 34.25 16.2852C34.5586 16.4375 34.9121 16.5137 35.3105 16.5137C35.7129 16.5137 36.0566 16.4453 36.3418 16.3086C36.6309 16.168 36.8516 15.9629 37.0039 15.6934C37.1562 15.4238 37.2324 15.0938 37.2324 14.7031C37.2324 14.293 37.1406 13.959 36.957 13.7012C36.7773 13.4434 36.5254 13.2539 36.2012 13.1328C35.8809 13.0117 35.5078 12.9512 35.082 12.9512H34.3672ZM43.0332 8.46875L39.4707 17.7324H38.8379L42.4004 8.46875H43.0332ZM45.2598 12.7812L44.709 12.623L45.125 8.46875H49.3906V9.125H45.7227L45.4238 11.9961C45.5723 11.8906 45.7871 11.7871 46.0684 11.6855C46.3535 11.5801 46.6738 11.5273 47.0293 11.5273C47.4082 11.5273 47.752 11.5918 48.0605 11.7207C48.373 11.8457 48.6406 12.0293 48.8633 12.2715C49.0859 12.5098 49.2578 12.7988 49.3789 13.1387C49.5 13.4746 49.5605 13.8555 49.5605 14.2812C49.5605 14.6914 49.5098 15.0684 49.4082 15.4121C49.3066 15.7559 49.1523 16.0566 48.9453 16.3145C48.7383 16.5684 48.4746 16.7656 48.1543 16.9062C47.834 17.0469 47.4531 17.1172 47.0117 17.1172C46.6719 17.1172 46.3516 17.0703 46.0508 16.9766C45.7539 16.8789 45.4883 16.7324 45.2539 16.5371C45.0195 16.3418 44.8281 16.0957 44.6797 15.7988C44.5352 15.502 44.4453 15.1543 44.4102 14.7559H45.084C45.1309 15.1387 45.2344 15.4609 45.3945 15.7227C45.5547 15.9844 45.7695 16.1816 46.0391 16.3145C46.3125 16.4473 46.6367 16.5137 47.0117 16.5137C47.3164 16.5137 47.582 16.4648 47.8086 16.3672C48.0391 16.2695 48.2305 16.127 48.3828 15.9395C48.5391 15.748 48.6562 15.5156 48.7344 15.2422C48.8164 14.9648 48.8574 14.6484 48.8574 14.293C48.8574 13.9883 48.8145 13.709 48.7285 13.4551C48.6426 13.1973 48.5156 12.9727 48.3477 12.7812C48.1836 12.5859 47.9805 12.4355 47.7383 12.3301C47.4961 12.2246 47.2188 12.1719 46.9062 12.1719C46.5 12.1719 46.1758 12.2266 45.9336 12.3359C45.6953 12.4453 45.4707 12.5938 45.2598 12.7812Z" fill="#1C1B1F"/>
<defs>
<linearGradient id="paint0_linear_402_7118" x1="1" y1="13" x2="47.5" y2="13" gradientUnits="userSpaceOnUse">
<stop offset="0.993449" stop-color="#E1F3FF"/>
<stop offset="1" stop-color="#F1F7FB" stop-opacity="0"/>
</linearGradient>
</defs>
</svg>
