<svg width="64" height="26" viewBox="0 0 64 26" fill="none" xmlns="http://www.w3.org/2000/svg">
<rect x="0.5" y="0.5" width="63" height="25" rx="12.5" fill="url(#paint0_linear_402_7112)"/>
<rect x="0.5" y="0.5" width="63" height="25" rx="12.5" stroke="#F3F3F3"/>
<rect x="1" y="1" width="24" height="24" rx="12" fill="#CAEAFE"/>
<mask id="mask0_402_7112" style="mask-type:alpha" maskUnits="userSpaceOnUse" x="5" y="5" width="16" height="16">
<rect x="5" y="5" width="16" height="16" fill="#D9D9D9"/>
</mask>
<g mask="url(#mask0_402_7112)">
<path d="M14.2566 11.3949V10.7744C14.6147 10.5932 14.9982 10.4573 15.4072 10.3667C15.8162 10.2761 16.2361 10.2308 16.6668 10.2308C16.913 10.2308 17.1493 10.2466 17.3758 10.2783C17.6023 10.3099 17.8361 10.3548 18.0771 10.4129V11.018C17.8446 10.9437 17.6179 10.8922 17.397 10.8635C17.176 10.8349 16.9326 10.8206 16.6668 10.8206C16.2361 10.8206 15.8156 10.8691 15.4053 10.9661C14.995 11.0631 14.6121 11.206 14.2566 11.3949ZM14.2566 15.036V14.3898C14.5976 14.2086 14.979 14.0727 15.4008 13.9821C15.8226 13.8915 16.2446 13.8462 16.6668 13.8462C16.913 13.8462 17.1493 13.862 17.3758 13.8936C17.6023 13.9253 17.8361 13.9701 18.0771 14.0283V14.6334C17.8446 14.559 17.6179 14.5075 17.397 14.4789C17.176 14.4503 16.9326 14.436 16.6668 14.436C16.2361 14.436 15.8156 14.4881 15.4053 14.5924C14.995 14.6966 14.6121 14.8445 14.2566 15.036ZM14.2566 13.2283V12.5821C14.6147 12.4009 14.9982 12.265 15.4072 12.1744C15.8162 12.0838 16.2361 12.0385 16.6668 12.0385C16.913 12.0385 17.1493 12.0543 17.3758 12.086C17.6023 12.1176 17.8361 12.1625 18.0771 12.2206V12.8257C17.8446 12.7513 17.6179 12.6998 17.397 12.6712C17.176 12.6426 16.9326 12.6283 16.6668 12.6283C16.2361 12.6283 15.8156 12.681 15.4053 12.7866C14.995 12.8921 14.6121 13.0394 14.2566 13.2283ZM9.3335 15.6924C9.91555 15.6924 10.4816 15.7592 11.0316 15.893C11.5816 16.0268 12.1267 16.2445 12.6668 16.5462V10.0052C12.1856 9.6616 11.6553 9.40391 11.0758 9.23211C10.4963 9.06032 9.91555 8.97442 9.3335 8.97442C8.9335 8.97442 8.58328 8.99835 8.28285 9.04621C7.98242 9.09407 7.64888 9.18296 7.28221 9.31287C7.17965 9.34706 7.107 9.39621 7.06426 9.46031C7.02153 9.52442 7.00016 9.59493 7.00016 9.67186V15.6821C7.00016 15.8018 7.0429 15.8894 7.12836 15.9449C7.21384 16.0005 7.30786 16.0069 7.41041 15.9642C7.654 15.8821 7.93541 15.8163 8.25465 15.7667C8.57388 15.7171 8.9335 15.6924 9.3335 15.6924ZM13.3335 16.5462C13.8737 16.2445 14.4187 16.0268 14.9687 15.893C15.5187 15.7592 16.0848 15.6924 16.6668 15.6924C17.0668 15.6924 17.4264 15.7171 17.7457 15.7667C18.0649 15.8163 18.3463 15.8821 18.5899 15.9642C18.6925 16.0069 18.7865 16.0005 18.872 15.9449C18.9574 15.8894 19.0002 15.8018 19.0002 15.6821V9.67186C19.0002 9.59493 18.9788 9.52656 18.9361 9.46672C18.8933 9.40689 18.8207 9.35561 18.7181 9.31287C18.3514 9.18296 18.0179 9.09407 17.7175 9.04621C17.417 8.99835 17.0668 8.97442 16.6668 8.97442C16.0848 8.97442 15.504 9.06032 14.9245 9.23211C14.345 9.40391 13.8147 9.6616 13.3335 10.0052V16.5462ZM13.0002 17.5129C12.4583 17.1419 11.8762 16.8569 11.254 16.6578C10.6318 16.4586 9.99162 16.359 9.3335 16.359C8.98648 16.359 8.64567 16.3881 8.31106 16.4462C7.97644 16.5043 7.65058 16.5975 7.3335 16.7257C7.09162 16.8223 6.86448 16.7932 6.65208 16.6385C6.43969 16.4838 6.3335 16.2702 6.3335 15.9975V9.55391C6.3335 9.38894 6.37687 9.23595 6.46361 9.09492C6.55037 8.9539 6.67195 8.85561 6.82836 8.80006C7.21982 8.6274 7.62708 8.50218 8.05016 8.42441C8.47324 8.34663 8.90102 8.30774 9.3335 8.30774C9.98648 8.30774 10.6235 8.40176 11.2444 8.58979C11.8653 8.77782 12.4506 9.05133 13.0002 9.41031C13.5497 9.05133 14.135 8.77782 14.7559 8.58979C15.3769 8.40176 16.0138 8.30774 16.6668 8.30774C17.0993 8.30774 17.5271 8.34663 17.9502 8.42441C18.3732 8.50218 18.7805 8.6274 19.172 8.80006C19.3284 8.85561 19.45 8.9539 19.5367 9.09492C19.6235 9.23595 19.6668 9.38894 19.6668 9.55391V15.9975C19.6668 16.2702 19.5521 16.4796 19.3226 16.6257C19.0931 16.7719 18.8489 16.7966 18.5899 16.7001C18.2814 16.5804 17.9662 16.4937 17.6444 16.4398C17.3226 16.386 16.9967 16.359 16.6668 16.359C16.0087 16.359 15.3685 16.4586 14.7463 16.6578C14.1241 16.8569 13.542 17.1419 13.0002 17.5129Z" fill="#1C1B1F"/>
</g>
<path d="M38.1465 16.3965V17H32.8086V16.4551L35.6035 13.2852C35.9512 12.8906 36.2285 12.5449 36.4355 12.248C36.6426 11.9473 36.791 11.6738 36.8809 11.4277C36.9746 11.1777 37.0215 10.9355 37.0215 10.7012C37.0215 10.3574 36.9531 10.0547 36.8164 9.79297C36.6836 9.53125 36.4844 9.32617 36.2188 9.17773C35.9531 9.0293 35.625 8.95508 35.2344 8.95508C34.8438 8.95508 34.5039 9.03906 34.2148 9.20703C33.9258 9.375 33.7031 9.60938 33.5469 9.91016C33.3945 10.207 33.3184 10.5449 33.3184 10.9238H32.6211C32.6211 10.4551 32.7246 10.0254 32.9316 9.63477C33.1426 9.24414 33.4434 8.93359 33.834 8.70312C34.2246 8.46875 34.6914 8.35156 35.2344 8.35156C35.75 8.35156 36.1934 8.44336 36.5645 8.62695C36.9355 8.80664 37.2207 9.06641 37.4199 9.40625C37.623 9.74609 37.7246 10.1562 37.7246 10.6367C37.7246 10.8945 37.6777 11.1543 37.584 11.416C37.4941 11.6777 37.3691 11.9395 37.209 12.2012C37.0527 12.459 36.873 12.7148 36.6699 12.9688C36.4707 13.2227 36.2617 13.4727 36.043 13.7188L33.6641 16.3965H38.1465ZM43.0332 8.46875L39.4707 17.7324H38.8379L42.4004 8.46875H43.0332ZM47.4922 8.43359V17H46.7949V9.31836L44.4746 10.1797V9.51758L47.375 8.43359H47.4922ZM56.0293 12.002V13.4375C56.0293 14.0625 55.9707 14.6074 55.8535 15.0723C55.7363 15.5332 55.5645 15.916 55.3379 16.2207C55.1152 16.5215 54.8418 16.7461 54.5176 16.8945C54.1973 17.043 53.8301 17.1172 53.416 17.1172C53.0879 17.1172 52.7871 17.0703 52.5137 16.9766C52.2402 16.8828 51.9961 16.7402 51.7812 16.5488C51.5703 16.3535 51.3906 16.1094 51.2422 15.8164C51.0938 15.5234 50.9805 15.1797 50.9023 14.7852C50.8242 14.3867 50.7852 13.9375 50.7852 13.4375V12.002C50.7852 11.373 50.8438 10.8301 50.9609 10.373C51.082 9.91602 51.2539 9.53711 51.4766 9.23633C51.7031 8.93555 51.9785 8.71289 52.3027 8.56836C52.627 8.41992 52.9941 8.3457 53.4043 8.3457C53.7324 8.3457 54.0332 8.39453 54.3066 8.49219C54.584 8.58594 54.8281 8.72656 55.0391 8.91406C55.2539 9.10156 55.4336 9.3418 55.5781 9.63477C55.7266 9.92383 55.8379 10.2656 55.9121 10.6602C55.9902 11.0547 56.0293 11.502 56.0293 12.002ZM55.332 13.5195V11.9141C55.332 11.5273 55.3047 11.1758 55.25 10.8594C55.1992 10.543 55.123 10.2656 55.0215 10.0273C54.9199 9.78906 54.791 9.58984 54.6348 9.42969C54.4824 9.26953 54.3027 9.15039 54.0957 9.07227C53.8926 8.99023 53.6621 8.94922 53.4043 8.94922C53.0879 8.94922 52.8086 9.01367 52.5664 9.14258C52.3281 9.26758 52.1289 9.45508 51.9688 9.70508C51.8086 9.95117 51.6875 10.2598 51.6055 10.6309C51.5273 11.002 51.4883 11.4297 51.4883 11.9141V13.5195C51.4883 13.9023 51.5137 14.252 51.5645 14.5684C51.6152 14.8809 51.6934 15.1582 51.7988 15.4004C51.9043 15.6426 52.0332 15.8477 52.1855 16.0156C52.3418 16.1797 52.5215 16.3047 52.7246 16.3906C52.9316 16.4727 53.1621 16.5137 53.416 16.5137C53.7402 16.5137 54.0215 16.4492 54.2598 16.3203C54.498 16.1875 54.6973 15.9941 54.8574 15.7402C55.0176 15.4824 55.1367 15.168 55.2148 14.7969C55.293 14.4219 55.332 13.9961 55.332 13.5195Z" fill="#1C1B1F"/>
<defs>
<linearGradient id="paint0_linear_402_7112" x1="1" y1="13" x2="47.5" y2="13" gradientUnits="userSpaceOnUse">
<stop offset="0.993449" stop-color="#E1F3FF"/>
<stop offset="1" stop-color="#F1F7FB" stop-opacity="0"/>
</linearGradient>
</defs>
</svg>
