<svg width="24" height="24" viewBox="0 0 24 24" fill="none" xmlns="http://www.w3.org/2000/svg">
<mask id="mask0_402_7376" style="mask-type:alpha" maskUnits="userSpaceOnUse" x="0" y="0" width="24" height="24">
<rect width="24" height="24" fill="#D9D9D9"/>
</mask>
<g mask="url(#mask0_402_7376)">
<path d="M6.00012 19.6153C5.5559 19.6153 5.17562 19.4572 4.85927 19.1408C4.54293 18.8245 4.38477 18.4442 4.38477 18C4.38477 17.5558 4.54293 17.1755 4.85927 16.8591C5.17562 16.5428 5.5559 16.3846 6.00012 16.3846C6.44433 16.3846 6.82462 16.5428 7.14097 16.8591C7.4573 17.1755 7.61547 17.5558 7.61547 18C7.61547 18.4442 7.4573 18.8245 7.14097 19.1408C6.82462 19.4572 6.44433 19.6153 6.00012 19.6153ZM6.00012 13.6153C5.5559 13.6153 5.17562 13.4572 4.85927 13.1408C4.54293 12.8245 4.38477 12.4442 4.38477 12C4.38477 11.5558 4.54293 11.1755 4.85927 10.8591C5.17562 10.5428 5.5559 10.3846 6.00012 10.3846C6.44433 10.3846 6.82462 10.5428 7.14097 10.8591C7.4573 11.1755 7.61547 11.5558 7.61547 12C7.61547 12.4442 7.4573 12.8245 7.14097 13.1408C6.82462 13.4572 6.44433 13.6153 6.00012 13.6153ZM6.00012 7.61534C5.5559 7.61534 5.17562 7.45718 4.85927 7.14084C4.54293 6.82449 4.38477 6.44421 4.38477 5.99999C4.38477 5.55578 4.54293 5.17549 4.85927 4.85914C5.17562 4.54281 5.5559 4.38464 6.00012 4.38464C6.44433 4.38464 6.82462 4.54281 7.14097 4.85914C7.4573 5.17549 7.61547 5.55578 7.61547 5.99999C7.61547 6.44421 7.4573 6.82449 7.14097 7.14084C6.82462 7.45718 6.44433 7.61534 6.00012 7.61534ZM11.9967 13.6153C11.5515 13.6153 11.1716 13.4572 10.8569 13.1408C10.5421 12.8245 10.3848 12.4442 10.3848 12C10.3848 11.5558 10.5429 11.1755 10.8593 10.8591C11.1756 10.5428 11.5559 10.3846 12.0001 10.3846C12.4443 10.3846 12.8246 10.5428 13.141 10.8591C13.4573 11.1755 13.6155 11.5558 13.6155 12L11.9967 13.6153ZM12.0001 7.61534C11.5559 7.61534 11.1756 7.45718 10.8593 7.14084C10.5429 6.82449 10.3848 6.44421 10.3848 5.99999C10.3848 5.55578 10.5429 5.17549 10.8593 4.85914C11.1756 4.54281 11.5559 4.38464 12.0001 4.38464C12.4443 4.38464 12.8246 4.54281 13.141 4.85914C13.4573 5.17549 13.6155 5.55578 13.6155 5.99999C13.6155 6.44421 13.4573 6.82449 13.141 7.14084C12.8246 7.45718 12.4443 7.61534 12.0001 7.61534ZM11.0001 19.7307V18.1346L16.5886 12.5461L18.1847 14.1423L12.5962 19.7307H11.0001ZM18.0001 7.61534C17.5559 7.61534 17.1756 7.45718 16.8593 7.14084C16.5429 6.82449 16.3848 6.44421 16.3848 5.99999C16.3848 5.55578 16.5429 5.17549 16.8593 4.85914C17.1756 4.54281 17.5559 4.38464 18.0001 4.38464C18.4443 4.38464 18.8246 4.54281 19.141 4.85914C19.4573 5.17549 19.6155 5.55578 19.6155 5.99999C19.6155 6.44421 19.4573 6.82449 19.141 7.14084C18.8246 7.45718 18.4443 7.61534 18.0001 7.61534ZM18.7982 13.5384L17.1924 11.9327L17.802 11.3327C17.9508 11.184 18.1241 11.1096 18.3222 11.1096C18.5203 11.1096 18.6854 11.184 18.8174 11.3327L19.3982 11.9135C19.5469 12.0455 19.6196 12.2106 19.6164 12.4086C19.6132 12.6067 19.5405 12.7801 19.3982 12.9288L18.7982 13.5384Z" fill="#2D9CDB"/>
</g>
</svg>
