<svg width="88" height="64" viewBox="0 0 88 64" fill="none" xmlns="http://www.w3.org/2000/svg">
<path d="M76.1423 59.1017L76.1423 32.1606C76.1423 32.1606 58.8887 34.8106 44.0333 43.6838C29.1779 34.8106 11.9243 32.1606 11.9243 32.1606L11.9243 59.1017C6.86147 60.4668 2.76457 62.1129 4.09494e-09 64C9.32627 60.4668 25.5473 58.0979 44 58.0979C62.4527 58.0979 78.6737 60.4266 88 64C85.2687 62.1129 81.2051 60.4668 76.1423 59.1017Z" fill="#0B7077"/>
<path d="M16.6208 29.2698L16.6208 33.0841C22.7495 34.4893 33.9411 37.6211 44.0334 43.6838C32.1091 32.4015 16.6208 29.2698 16.6208 29.2698Z" fill="#0B7077"/>
<path d="M71.4792 29.2698C71.4792 29.2698 55.9909 32.4015 44.0667 43.6838C54.159 37.6612 65.3505 34.4893 71.4792 33.0841L71.4792 29.2698Z" fill="#0B7077"/>
<path d="M44.0667 29.6311C43.4339 31.3174 42.4679 32.803 41.3354 33.9674L44.0334 39.6286L46.798 33.9674C45.6322 32.803 44.6996 31.3174 44.0667 29.6311Z" fill="#0B7077"/>
<path d="M35.8729 25.4154C37.6716 25.4154 39.1704 23.6488 39.1704 21.4405C39.1704 19.2723 37.7049 17.4656 35.8729 17.4656C34.0743 17.4656 32.5754 19.2322 32.5754 21.4405C32.5754 23.6488 34.041 25.4154 35.8729 25.4154ZM34.7738 18.6701C35.4732 18.6701 36.0395 19.3527 36.0395 20.1958C36.0395 21.039 35.4732 21.7215 34.7738 21.7215C34.0743 21.7215 33.5081 21.039 33.5081 20.1958C33.5081 19.3527 34.0743 18.6701 34.7738 18.6701Z" fill="#0B7077"/>
<path d="M48.9294 21.4405C48.9294 23.6086 50.395 25.4154 52.1936 25.4154C53.9923 25.4154 55.4911 23.6488 55.4911 21.4405C55.4911 19.2723 54.0256 17.4656 52.1936 17.4656C50.4283 17.5057 48.9294 19.2723 48.9294 21.4405ZM52.5933 20.1958C52.5933 21.039 52.0271 21.7215 51.3276 21.7215C50.6282 21.7215 50.0619 21.039 50.0619 20.1958C50.0619 19.3527 50.6282 18.6701 51.3276 18.6701C52.0271 18.6701 52.5933 19.3527 52.5933 20.1958Z" fill="#0B7077"/>
<path d="M29.5775 29.2296C31.2096 31.1568 33.4413 32.3212 35.8728 32.3212C39.47 32.3212 42.601 29.7515 44.0666 26.0577C45.4988 29.7515 48.6298 32.3212 52.2604 32.3212C54.7252 32.3212 56.9235 31.1167 58.5556 29.2296C59.2551 30.4341 59.8546 31.7189 60.3542 33.0439C62.386 32.1204 64.2513 31.4379 65.8834 30.8758C64.8175 28.2258 63.1521 25.8569 61.0537 23.8494C61.1869 23.0866 61.2868 22.2434 61.2868 21.4404C61.2868 19.8344 60.9871 18.3086 60.4541 16.9034C59.8213 14.6549 58.8553 12.5671 57.6229 10.7202L57.5563 -4.54086e-09L50.1619 4.17565C48.2301 3.29234 46.165 2.85069 44.0666 2.85069C41.9681 2.85069 39.903 3.29234 37.9712 4.17565L30.5435 -1.06667e-09L30.4769 10.7202C29.2778 12.5671 28.3118 14.6148 27.679 16.8231C27.146 18.2283 26.813 19.7942 26.813 21.4404C26.813 22.2835 26.8796 23.0866 27.0461 23.8494C24.9477 25.8569 23.3156 28.2258 22.2498 30.8758C23.8485 31.4379 25.7471 32.1606 27.7789 33.0439C28.2785 31.7189 28.8781 30.4341 29.5775 29.2296ZM59.355 21.4404C59.355 26.1782 56.1574 30.0326 52.227 30.0326C48.2967 30.0326 45.0991 26.1782 45.0991 21.4404C45.0991 16.7026 48.2967 12.8482 52.227 12.8482C56.1574 12.8883 59.355 16.7428 59.355 21.4404ZM44.0332 5.13927C48.5632 5.13927 52.6934 7.50815 55.5245 11.3225C54.492 10.8406 53.3595 10.5596 52.1937 10.5596C48.5965 10.5596 45.4655 13.1292 43.9999 16.8231C42.5677 13.1292 39.4367 10.5596 35.8061 10.5596C34.6404 10.5596 33.5079 10.8406 32.5086 11.3225C35.4065 7.50815 39.5033 5.13927 44.0332 5.13927ZM35.8728 12.8883C39.8031 12.8883 43.0007 16.7428 43.0007 21.4805C43.0007 26.2183 39.8031 30.0728 35.8728 30.0728C31.9424 30.0728 28.7448 26.2183 28.7448 21.4805C28.7448 16.7428 31.9424 12.8883 35.8728 12.8883Z" fill="#0B7077"/>
</svg>
