<svg width="134" height="26" viewBox="0 0 134 26" fill="none" xmlns="http://www.w3.org/2000/svg">
<rect x="0.5" y="0.5" width="63" height="25" rx="12.5" fill="url(#paint0_linear_402_7111)"/>
<rect x="0.5" y="0.5" width="63" height="25" rx="12.5" stroke="#F3F3F3"/>
<rect x="1" y="1" width="24" height="24" rx="12" fill="#CAEAFE"/>
<mask id="mask0_402_7111" style="mask-type:alpha" maskUnits="userSpaceOnUse" x="5" y="5" width="16" height="16">
<rect x="5" y="5" width="16" height="16" fill="#D9D9D9"/>
</mask>
<g mask="url(#mask0_402_7111)">
<path d="M14.2566 11.3949V10.7744C14.6147 10.5932 14.9982 10.4573 15.4072 10.3667C15.8162 10.2761 16.2361 10.2308 16.6668 10.2308C16.913 10.2308 17.1493 10.2466 17.3758 10.2783C17.6023 10.3099 17.8361 10.3548 18.0771 10.4129V11.018C17.8446 10.9437 17.6179 10.8922 17.397 10.8635C17.176 10.8349 16.9326 10.8206 16.6668 10.8206C16.2361 10.8206 15.8156 10.8691 15.4053 10.9661C14.995 11.0631 14.6121 11.206 14.2566 11.3949ZM14.2566 15.036V14.3898C14.5976 14.2086 14.979 14.0727 15.4008 13.9821C15.8226 13.8915 16.2446 13.8462 16.6668 13.8462C16.913 13.8462 17.1493 13.862 17.3758 13.8936C17.6023 13.9253 17.8361 13.9701 18.0771 14.0283V14.6334C17.8446 14.559 17.6179 14.5075 17.397 14.4789C17.176 14.4503 16.9326 14.436 16.6668 14.436C16.2361 14.436 15.8156 14.4881 15.4053 14.5924C14.995 14.6966 14.6121 14.8445 14.2566 15.036ZM14.2566 13.2283V12.5821C14.6147 12.4009 14.9982 12.265 15.4072 12.1744C15.8162 12.0838 16.2361 12.0385 16.6668 12.0385C16.913 12.0385 17.1493 12.0543 17.3758 12.086C17.6023 12.1176 17.8361 12.1625 18.0771 12.2206V12.8257C17.8446 12.7513 17.6179 12.6998 17.397 12.6712C17.176 12.6426 16.9326 12.6283 16.6668 12.6283C16.2361 12.6283 15.8156 12.681 15.4053 12.7866C14.995 12.8921 14.6121 13.0394 14.2566 13.2283ZM9.3335 15.6924C9.91555 15.6924 10.4816 15.7592 11.0316 15.893C11.5816 16.0268 12.1267 16.2445 12.6668 16.5462V10.0052C12.1856 9.6616 11.6553 9.40391 11.0758 9.23211C10.4963 9.06032 9.91555 8.97442 9.3335 8.97442C8.9335 8.97442 8.58328 8.99835 8.28285 9.04621C7.98242 9.09407 7.64888 9.18296 7.28221 9.31287C7.17965 9.34706 7.107 9.39621 7.06426 9.46031C7.02153 9.52442 7.00016 9.59493 7.00016 9.67186V15.6821C7.00016 15.8018 7.0429 15.8894 7.12836 15.9449C7.21384 16.0005 7.30786 16.0069 7.41041 15.9642C7.654 15.8821 7.93541 15.8163 8.25465 15.7667C8.57388 15.7171 8.9335 15.6924 9.3335 15.6924ZM13.3335 16.5462C13.8737 16.2445 14.4187 16.0268 14.9687 15.893C15.5187 15.7592 16.0848 15.6924 16.6668 15.6924C17.0668 15.6924 17.4264 15.7171 17.7457 15.7667C18.0649 15.8163 18.3463 15.8821 18.5899 15.9642C18.6925 16.0069 18.7865 16.0005 18.872 15.9449C18.9574 15.8894 19.0002 15.8018 19.0002 15.6821V9.67186C19.0002 9.59493 18.9788 9.52656 18.9361 9.46672C18.8933 9.40689 18.8207 9.35561 18.7181 9.31287C18.3514 9.18296 18.0179 9.09407 17.7175 9.04621C17.417 8.99835 17.0668 8.97442 16.6668 8.97442C16.0848 8.97442 15.504 9.06032 14.9245 9.23211C14.345 9.40391 13.8147 9.6616 13.3335 10.0052V16.5462ZM13.0002 17.5129C12.4583 17.1419 11.8762 16.8569 11.254 16.6578C10.6318 16.4586 9.99162 16.359 9.3335 16.359C8.98648 16.359 8.64567 16.3881 8.31106 16.4462C7.97644 16.5043 7.65058 16.5975 7.3335 16.7257C7.09162 16.8223 6.86448 16.7932 6.65208 16.6385C6.43969 16.4838 6.3335 16.2702 6.3335 15.9975V9.55391C6.3335 9.38894 6.37687 9.23595 6.46361 9.09492C6.55037 8.9539 6.67195 8.85561 6.82836 8.80006C7.21982 8.6274 7.62708 8.50218 8.05016 8.42441C8.47324 8.34663 8.90102 8.30774 9.3335 8.30774C9.98648 8.30774 10.6235 8.40176 11.2444 8.58979C11.8653 8.77782 12.4506 9.05133 13.0002 9.41031C13.5497 9.05133 14.135 8.77782 14.7559 8.58979C15.3769 8.40176 16.0138 8.30774 16.6668 8.30774C17.0993 8.30774 17.5271 8.34663 17.9502 8.42441C18.3732 8.50218 18.7805 8.6274 19.172 8.80006C19.3284 8.85561 19.45 8.9539 19.5367 9.09492C19.6235 9.23595 19.6668 9.38894 19.6668 9.55391V15.9975C19.6668 16.2702 19.5521 16.4796 19.3226 16.6257C19.0931 16.7719 18.8489 16.7966 18.5899 16.7001C18.2814 16.5804 17.9662 16.4937 17.6444 16.4398C17.3226 16.386 16.9967 16.359 16.6668 16.359C16.0087 16.359 15.3685 16.4586 14.7463 16.6578C14.1241 16.8569 13.542 17.1419 13.0002 17.5129Z" fill="#1C1B1F"/>
</g>
<path d="M38.1465 16.3965V17H32.8086V16.4551L35.6035 13.2852C35.9512 12.8906 36.2285 12.5449 36.4355 12.248C36.6426 11.9473 36.791 11.6738 36.8809 11.4277C36.9746 11.1777 37.0215 10.9355 37.0215 10.7012C37.0215 10.3574 36.9531 10.0547 36.8164 9.79297C36.6836 9.53125 36.4844 9.32617 36.2188 9.17773C35.9531 9.0293 35.625 8.95508 35.2344 8.95508C34.8438 8.95508 34.5039 9.03906 34.2148 9.20703C33.9258 9.375 33.7031 9.60938 33.5469 9.91016C33.3945 10.207 33.3184 10.5449 33.3184 10.9238H32.6211C32.6211 10.4551 32.7246 10.0254 32.9316 9.63477C33.1426 9.24414 33.4434 8.93359 33.834 8.70312C34.2246 8.46875 34.6914 8.35156 35.2344 8.35156C35.75 8.35156 36.1934 8.44336 36.5645 8.62695C36.9355 8.80664 37.2207 9.06641 37.4199 9.40625C37.623 9.74609 37.7246 10.1562 37.7246 10.6367C37.7246 10.8945 37.6777 11.1543 37.584 11.416C37.4941 11.6777 37.3691 11.9395 37.209 12.2012C37.0527 12.459 36.873 12.7148 36.6699 12.9688C36.4707 13.2227 36.2617 13.4727 36.043 13.7188L33.6641 16.3965H38.1465ZM43.0332 8.46875L39.4707 17.7324H38.8379L42.4004 8.46875H43.0332ZM47.4922 8.43359V17H46.7949V9.31836L44.4746 10.1797V9.51758L47.375 8.43359H47.4922ZM56.0293 12.002V13.4375C56.0293 14.0625 55.9707 14.6074 55.8535 15.0723C55.7363 15.5332 55.5645 15.916 55.3379 16.2207C55.1152 16.5215 54.8418 16.7461 54.5176 16.8945C54.1973 17.043 53.8301 17.1172 53.416 17.1172C53.0879 17.1172 52.7871 17.0703 52.5137 16.9766C52.2402 16.8828 51.9961 16.7402 51.7812 16.5488C51.5703 16.3535 51.3906 16.1094 51.2422 15.8164C51.0938 15.5234 50.9805 15.1797 50.9023 14.7852C50.8242 14.3867 50.7852 13.9375 50.7852 13.4375V12.002C50.7852 11.373 50.8438 10.8301 50.9609 10.373C51.082 9.91602 51.2539 9.53711 51.4766 9.23633C51.7031 8.93555 51.9785 8.71289 52.3027 8.56836C52.627 8.41992 52.9941 8.3457 53.4043 8.3457C53.7324 8.3457 54.0332 8.39453 54.3066 8.49219C54.584 8.58594 54.8281 8.72656 55.0391 8.91406C55.2539 9.10156 55.4336 9.3418 55.5781 9.63477C55.7266 9.92383 55.8379 10.2656 55.9121 10.6602C55.9902 11.0547 56.0293 11.502 56.0293 12.002ZM55.332 13.5195V11.9141C55.332 11.5273 55.3047 11.1758 55.25 10.8594C55.1992 10.543 55.123 10.2656 55.0215 10.0273C54.9199 9.78906 54.791 9.58984 54.6348 9.42969C54.4824 9.26953 54.3027 9.15039 54.0957 9.07227C53.8926 8.99023 53.6621 8.94922 53.4043 8.94922C53.0879 8.94922 52.8086 9.01367 52.5664 9.14258C52.3281 9.26758 52.1289 9.45508 51.9688 9.70508C51.8086 9.95117 51.6875 10.2598 51.6055 10.6309C51.5273 11.002 51.4883 11.4297 51.4883 11.9141V13.5195C51.4883 13.9023 51.5137 14.252 51.5645 14.5684C51.6152 14.8809 51.6934 15.1582 51.7988 15.4004C51.9043 15.6426 52.0332 15.8477 52.1855 16.0156C52.3418 16.1797 52.5215 16.3047 52.7246 16.3906C52.9316 16.4727 53.1621 16.5137 53.416 16.5137C53.7402 16.5137 54.0215 16.4492 54.2598 16.3203C54.498 16.1875 54.6973 15.9941 54.8574 15.7402C55.0176 15.4824 55.1367 15.168 55.2148 14.7969C55.293 14.4219 55.332 13.9961 55.332 13.5195Z" fill="#1C1B1F"/>
<rect x="70.5" y="0.5" width="63" height="25" rx="12.5" fill="url(#paint1_linear_402_7111)"/>
<rect x="70.5" y="0.5" width="63" height="25" rx="12.5" stroke="#F3F3F3"/>
<rect x="71" y="1" width="24" height="24" rx="12" fill="#CAEAFE"/>
<mask id="mask1_402_7111" style="mask-type:alpha" maskUnits="userSpaceOnUse" x="75" y="5" width="16" height="16">
<rect x="75" y="5" width="16" height="16" fill="#D9D9D9"/>
</mask>
<g mask="url(#mask1_402_7111)">
<path d="M78.9998 19C78.6238 19 78.3075 18.8718 78.0511 18.6154C77.7947 18.359 77.6665 18.0427 77.6665 17.6667V15.8205H79.6665V7H88.3332V12.2718C88.2221 12.259 88.1103 12.2573 87.9979 12.2667C87.8855 12.2761 87.775 12.2996 87.6665 12.3372V7.66667H80.3332V15.8205H83.7434L83.0768 16.4872H78.3332V17.6667C78.3332 17.8556 78.3971 18.0139 78.5248 18.1417C78.6526 18.2694 78.8109 18.3333 78.9998 18.3333H82.7434V19H78.9998ZM84.3332 19V17.4731L87.0716 14.7346L87.4934 15.1436L84.9229 17.7102V18.4103H85.6229L88.1934 15.8436L88.6114 16.2616L85.8729 19H84.3332ZM88.6114 16.2616L87.0716 14.7346L87.8152 13.991C87.9204 13.8944 88.0481 13.8462 88.1986 13.8462C88.349 13.8462 88.4725 13.8944 88.5691 13.991L89.355 14.7769C89.4515 14.8735 89.4998 14.997 89.4998 15.1474C89.4998 15.2979 89.4515 15.4256 89.355 15.5308L88.6114 16.2616ZM81.2563 10.5898V9.92308H86.7434V10.5898H81.2563ZM81.2563 12.4359V11.7692H86.7434V12.4359H81.2563Z" fill="#1C1B1F"/>
</g>
<path d="M104.367 12.3477H105.082C105.52 12.3477 105.885 12.2734 106.178 12.125C106.475 11.9727 106.697 11.7715 106.846 11.5215C106.998 11.2715 107.074 10.9941 107.074 10.6895C107.074 10.3457 107.01 10.0449 106.881 9.78711C106.752 9.52539 106.555 9.32227 106.289 9.17773C106.027 9.0293 105.691 8.95508 105.281 8.95508C104.922 8.95508 104.602 9.02539 104.32 9.16602C104.039 9.30664 103.816 9.50781 103.652 9.76953C103.488 10.0312 103.406 10.3438 103.406 10.707H102.709C102.709 10.2422 102.82 9.83398 103.043 9.48242C103.266 9.12695 103.572 8.84961 103.963 8.65039C104.354 8.45117 104.793 8.35156 105.281 8.35156C105.785 8.35156 106.223 8.44336 106.594 8.62695C106.969 8.81055 107.258 9.07812 107.461 9.42969C107.668 9.78125 107.771 10.209 107.771 10.7129C107.771 10.9707 107.715 11.2246 107.602 11.4746C107.492 11.7246 107.328 11.9512 107.109 12.1543C106.891 12.3535 106.619 12.5137 106.295 12.6348C105.971 12.7559 105.594 12.8164 105.164 12.8164H104.367V12.3477ZM104.367 12.9512V12.4883H105.164C105.652 12.4883 106.07 12.5449 106.418 12.6582C106.766 12.7676 107.051 12.9238 107.273 13.127C107.5 13.3262 107.666 13.5586 107.771 13.8242C107.877 14.0898 107.93 14.375 107.93 14.6797C107.93 15.0703 107.865 15.416 107.736 15.7168C107.607 16.0176 107.424 16.2734 107.186 16.4844C106.951 16.6914 106.674 16.8496 106.354 16.959C106.037 17.0645 105.689 17.1172 105.311 17.1172C104.967 17.1172 104.631 17.0664 104.303 16.9648C103.979 16.8633 103.686 16.7129 103.424 16.5137C103.166 16.3105 102.961 16.0566 102.809 15.752C102.656 15.4434 102.58 15.0879 102.58 14.6855H103.277C103.277 15.0449 103.363 15.3633 103.535 15.6406C103.707 15.9141 103.945 16.1289 104.25 16.2852C104.559 16.4375 104.912 16.5137 105.311 16.5137C105.713 16.5137 106.057 16.4453 106.342 16.3086C106.631 16.168 106.852 15.9629 107.004 15.6934C107.156 15.4238 107.232 15.0938 107.232 14.7031C107.232 14.293 107.141 13.959 106.957 13.7012C106.777 13.4434 106.525 13.2539 106.201 13.1328C105.881 13.0117 105.508 12.9512 105.082 12.9512H104.367ZM113.033 8.46875L109.471 17.7324H108.838L112.4 8.46875H113.033ZM115.26 12.7812L114.709 12.623L115.125 8.46875H119.391V9.125H115.723L115.424 11.9961C115.572 11.8906 115.787 11.7871 116.068 11.6855C116.354 11.5801 116.674 11.5273 117.029 11.5273C117.408 11.5273 117.752 11.5918 118.061 11.7207C118.373 11.8457 118.641 12.0293 118.863 12.2715C119.086 12.5098 119.258 12.7988 119.379 13.1387C119.5 13.4746 119.561 13.8555 119.561 14.2812C119.561 14.6914 119.51 15.0684 119.408 15.4121C119.307 15.7559 119.152 16.0566 118.945 16.3145C118.738 16.5684 118.475 16.7656 118.154 16.9062C117.834 17.0469 117.453 17.1172 117.012 17.1172C116.672 17.1172 116.352 17.0703 116.051 16.9766C115.754 16.8789 115.488 16.7324 115.254 16.5371C115.02 16.3418 114.828 16.0957 114.68 15.7988C114.535 15.502 114.445 15.1543 114.41 14.7559H115.084C115.131 15.1387 115.234 15.4609 115.395 15.7227C115.555 15.9844 115.77 16.1816 116.039 16.3145C116.312 16.4473 116.637 16.5137 117.012 16.5137C117.316 16.5137 117.582 16.4648 117.809 16.3672C118.039 16.2695 118.23 16.127 118.383 15.9395C118.539 15.748 118.656 15.5156 118.734 15.2422C118.816 14.9648 118.857 14.6484 118.857 14.293C118.857 13.9883 118.814 13.709 118.729 13.4551C118.643 13.1973 118.516 12.9727 118.348 12.7812C118.184 12.5859 117.98 12.4355 117.738 12.3301C117.496 12.2246 117.219 12.1719 116.906 12.1719C116.5 12.1719 116.176 12.2266 115.934 12.3359C115.695 12.4453 115.471 12.5938 115.26 12.7812Z" fill="#1C1B1F"/>
<defs>
<linearGradient id="paint0_linear_402_7111" x1="1" y1="13" x2="47.5" y2="13" gradientUnits="userSpaceOnUse">
<stop offset="0.993449" stop-color="#E1F3FF"/>
<stop offset="1" stop-color="#F1F7FB" stop-opacity="0"/>
</linearGradient>
<linearGradient id="paint1_linear_402_7111" x1="71" y1="13" x2="117.5" y2="13" gradientUnits="userSpaceOnUse">
<stop offset="0.993449" stop-color="#E1F3FF"/>
<stop offset="1" stop-color="#F1F7FB" stop-opacity="0"/>
</linearGradient>
</defs>
</svg>
