<svg width="24" height="24" viewBox="0 0 24 24" fill="none" xmlns="http://www.w3.org/2000/svg">
<mask id="mask0_402_7108" style="mask-type:alpha" maskUnits="userSpaceOnUse" x="0" y="0" width="24" height="24">
<rect width="24" height="24" fill="#D9D9D9"/>
</mask>
<g mask="url(#mask0_402_7108)">
<path d="M6.01745 14C5.46265 14 4.98788 13.804 4.59313 13.412C4.19771 13.0207 4 12.55 4 12C4 11.45 4.19771 10.979 4.59313 10.587C4.98788 10.1957 5.46265 10 6.01745 10C6.57225 10 7.04702 10.1957 7.44177 10.587C7.83719 10.979 8.0349 11.45 8.0349 12C8.0349 12.55 7.83719 13.0207 7.44177 13.412C7.04702 13.804 6.57225 14 6.01745 14ZM12.0698 14C11.515 14 11.0402 13.804 10.6455 13.412C10.2501 13.0207 10.0523 12.55 10.0523 12C10.0523 11.45 10.2501 10.979 10.6455 10.587C11.0402 10.1957 11.515 10 12.0698 10C12.6246 10 13.0997 10.1957 13.4951 10.587C13.8899 10.979 14.0872 11.45 14.0872 12C14.0872 12.55 13.8899 13.0207 13.4951 13.412C13.0997 13.804 12.6246 14 12.0698 14ZM18.1221 14C17.5673 14 17.0922 13.804 16.6968 13.412C16.3021 13.0207 16.1047 12.55 16.1047 12C16.1047 11.45 16.3021 10.979 16.6968 10.587C17.0922 10.1957 17.5673 10 18.1221 10C18.6769 10 19.152 10.1957 19.5475 10.587C19.9422 10.979 20.1396 11.45 20.1396 12C20.1396 12.55 19.9422 13.0207 19.5475 13.412C19.152 13.804 18.6769 14 18.1221 14Z" fill="#333333"/>
</g>
</svg>
