<svg width="22" height="16" viewBox="0 0 22 16" fill="none" xmlns="http://www.w3.org/2000/svg">
<path d="M3.72481 16C2.7248 16 1.87064 15.6417 1.1623 14.925C0.453971 14.2083 0.083138 13.3417 0.0498047 12.325C0.0498047 12.175 0.058138 12.025 0.0748047 11.875C0.0914714 11.725 0.116471 11.575 0.149805 11.425L2.2498 3.025C2.48314 2.125 2.95814 1.39583 3.6748 0.8375C4.39147 0.279167 5.20814 0 6.12481 0H15.8748C16.7915 0 17.6081 0.279167 18.3248 0.8375C19.0415 1.39583 19.5165 2.125 19.7498 3.025L21.8498 11.425C21.8831 11.575 21.9123 11.7292 21.9373 11.8875C21.9623 12.0458 21.9748 12.2 21.9748 12.35C21.9748 13.3667 21.6123 14.2292 20.8873 14.9375C20.1623 15.6458 19.2915 16 18.2748 16C17.5748 16 16.9248 15.8167 16.3248 15.45C15.7248 15.0833 15.2748 14.5833 14.9748 13.95L14.2748 12.5C14.1915 12.3333 14.0665 12.2083 13.8998 12.125C13.7331 12.0417 13.5581 12 13.3748 12H8.62481C8.44147 12 8.26647 12.0417 8.09981 12.125C7.93314 12.2083 7.80814 12.3333 7.72481 12.5L7.02481 13.95C6.72481 14.5833 6.27481 15.0833 5.67481 15.45C5.07481 15.8167 4.42481 16 3.72481 16ZM3.7998 14C4.11647 14 4.40397 13.9167 4.6623 13.75C4.92064 13.5833 5.11647 13.3583 5.2498 13.075L5.94981 11.65C6.19981 11.1333 6.56647 10.7292 7.04981 10.4375C7.53314 10.1458 8.05814 10 8.62481 10H13.3748C13.9415 10 14.4665 10.15 14.9498 10.45C15.4331 10.75 15.8081 11.15 16.0748 11.65L16.7748 13.075C16.9081 13.3583 17.104 13.5833 17.3623 13.75C17.6206 13.9167 17.9081 14 18.2248 14C18.6915 14 19.0915 13.8458 19.4248 13.5375C19.7581 13.2292 19.9331 12.8417 19.9498 12.375C19.9498 12.3917 19.9331 12.2333 19.8998 11.9L17.7998 3.525C17.6831 3.075 17.4498 2.70833 17.0998 2.425C16.7498 2.14167 16.3415 2 15.8748 2H6.12481C5.65814 2 5.24564 2.14167 4.88731 2.425C4.52897 2.70833 4.29981 3.075 4.19981 3.525L2.0998 11.9C2.06647 12 2.0498 12.15 2.0498 12.35C2.0498 12.8167 2.22064 13.2083 2.5623 13.525C2.90397 13.8417 3.31647 14 3.7998 14ZM12.4998 7C12.7831 7 13.0206 6.90417 13.2123 6.7125C13.404 6.52083 13.4998 6.28333 13.4998 6C13.4998 5.71667 13.404 5.47917 13.2123 5.2875C13.0206 5.09583 12.7831 5 12.4998 5C12.2165 5 11.979 5.09583 11.7873 5.2875C11.5956 5.47917 11.4998 5.71667 11.4998 6C11.4998 6.28333 11.5956 6.52083 11.7873 6.7125C11.979 6.90417 12.2165 7 12.4998 7ZM14.4998 5C14.7831 5 15.0206 4.90417 15.2123 4.7125C15.404 4.52083 15.4998 4.28333 15.4998 4C15.4998 3.71667 15.404 3.47917 15.2123 3.2875C15.0206 3.09583 14.7831 3 14.4998 3C14.2165 3 13.979 3.09583 13.7873 3.2875C13.5956 3.47917 13.4998 3.71667 13.4998 4C13.4998 4.28333 13.5956 4.52083 13.7873 4.7125C13.979 4.90417 14.2165 5 14.4998 5ZM14.4998 9C14.7831 9 15.0206 8.90417 15.2123 8.7125C15.404 8.52083 15.4998 8.28333 15.4998 8C15.4998 7.71667 15.404 7.47917 15.2123 7.2875C15.0206 7.09583 14.7831 7 14.4998 7C14.2165 7 13.979 7.09583 13.7873 7.2875C13.5956 7.47917 13.4998 7.71667 13.4998 8C13.4998 8.28333 13.5956 8.52083 13.7873 8.7125C13.979 8.90417 14.2165 9 14.4998 9ZM16.4998 7C16.7831 7 17.0206 6.90417 17.2123 6.7125C17.404 6.52083 17.4998 6.28333 17.4998 6C17.4998 5.71667 17.404 5.47917 17.2123 5.2875C17.0206 5.09583 16.7831 5 16.4998 5C16.2165 5 15.979 5.09583 15.7873 5.2875C15.5956 5.47917 15.4998 5.71667 15.4998 6C15.4998 6.28333 15.5956 6.52083 15.7873 6.7125C15.979 6.90417 16.2165 7 16.4998 7ZM7.49981 8.5C7.71647 8.5 7.89564 8.42917 8.03731 8.2875C8.17897 8.14583 8.24981 7.96667 8.24981 7.75V6.75H9.24981C9.46647 6.75 9.64564 6.67917 9.78731 6.5375C9.92897 6.39583 9.99981 6.21667 9.99981 6C9.99981 5.78333 9.92897 5.60417 9.78731 5.4625C9.64564 5.32083 9.46647 5.25 9.24981 5.25H8.24981V4.25C8.24981 4.03333 8.17897 3.85417 8.03731 3.7125C7.89564 3.57083 7.71647 3.5 7.49981 3.5C7.28314 3.5 7.10397 3.57083 6.96231 3.7125C6.82064 3.85417 6.74981 4.03333 6.74981 4.25V5.25H5.7498C5.53314 5.25 5.35397 5.32083 5.21231 5.4625C5.07064 5.60417 4.9998 5.78333 4.9998 6C4.9998 6.21667 5.07064 6.39583 5.21231 6.5375C5.35397 6.67917 5.53314 6.75 5.7498 6.75H6.74981V7.75C6.74981 7.96667 6.82064 8.14583 6.96231 8.2875C7.10397 8.42917 7.28314 8.5 7.49981 8.5Z" fill="#2D9CDB"/>
</svg>
