<svg width="147" height="105" viewBox="0 0 147 105" fill="none" xmlns="http://www.w3.org/2000/svg">
<path d="M120.83 94.1425L120.83 64.6758C120.83 64.6758 97.3028 67.5741 77.0454 77.2793C56.788 67.5741 33.2604 64.6758 33.2604 64.6758L33.2604 94.1425C26.3565 95.6356 20.7699 97.4361 17 99.5001C29.7176 95.6356 51.8372 93.0446 77 93.0446C102.163 93.0446 124.282 95.5917 137 99.5001C133.276 97.4361 127.734 95.6356 120.83 94.1425Z" fill="#ccc"/>
<path d="M39.6648 61.5137L39.6648 65.6856C48.0221 67.2226 63.2833 70.6479 77.0456 77.279C60.7852 64.939 39.6648 61.5137 39.6648 61.5137Z" fill="#ccc"/>
<path d="M114.472 61.5137C114.472 61.5137 93.3512 64.939 77.0908 77.279C90.8531 70.6918 106.114 67.2226 114.472 65.6856L114.472 61.5137Z" fill="#ccc"/>
<path d="M77.0909 61.9092C76.2279 63.7536 74.9107 65.3784 73.3665 66.652L77.0455 72.8439L80.8154 66.652C79.2256 65.3784 77.9539 63.7536 77.0909 61.9092Z" fill="#ccc"/>
<path d="M65.9176 57.2981C68.3703 57.2981 70.4142 55.3659 70.4142 52.9506C70.4142 50.5792 68.4157 48.603 65.9176 48.603C63.4649 48.603 61.421 50.5353 61.421 52.9506C61.421 55.3659 63.4195 57.2981 65.9176 57.2981ZM64.4188 49.9205C65.3726 49.9205 66.1447 50.667 66.1447 51.5892C66.1447 52.5114 65.3726 53.258 64.4188 53.258C63.4649 53.258 62.6928 52.5114 62.6928 51.5892C62.6928 50.667 63.4649 49.9205 64.4188 49.9205Z" fill="#ccc"/>
<path d="M83.7222 52.9506C83.7222 55.322 85.7206 57.2981 88.1733 57.2981C90.626 57.2981 92.6699 55.3659 92.6699 52.9506C92.6699 50.5792 90.6714 48.603 88.1733 48.603C85.7661 48.6469 83.7222 50.5792 83.7222 52.9506ZM88.7184 51.5892C88.7184 52.5114 87.9462 53.258 86.9924 53.258C86.0386 53.258 85.2664 52.5114 85.2664 51.5892C85.2664 50.667 86.0386 49.9205 86.9924 49.9205C87.9462 49.9205 88.7184 50.667 88.7184 51.5892Z" fill="#ccc"/>
<path d="M57.3331 61.4699C59.5587 63.5778 62.6019 64.8513 65.9175 64.8513C70.8229 64.8513 75.0924 62.0408 77.0909 58.0006C79.044 62.0408 83.3134 64.8513 88.2642 64.8513C91.6253 64.8513 94.6231 63.5339 96.8486 61.4699C97.8025 62.7873 98.62 64.1926 99.3013 65.6418C102.072 64.6317 104.615 63.8852 106.841 63.2704C105.388 60.372 103.117 57.781 100.255 55.5853C100.437 54.7509 100.573 53.8287 100.573 52.9504C100.573 51.1938 100.164 49.5251 99.4376 47.9881C98.5746 45.5289 97.2574 43.2453 95.5769 41.2252L95.486 29.5L85.4028 34.0671C82.7684 33.101 79.9524 32.6179 77.0909 32.6179C74.2294 32.6179 71.4134 33.101 68.779 34.0671L58.6503 29.5L58.5595 41.2252C56.9243 43.2453 55.6072 45.4849 54.7442 47.9002C54.0175 49.4373 53.5633 51.1499 53.5633 52.9504C53.5633 53.8726 53.6541 54.7509 53.8812 55.5853C51.0197 57.781 48.7941 60.372 47.3407 63.2704C49.5209 63.8852 52.1098 64.6756 54.8804 65.6418C55.5617 64.1926 56.3793 62.7873 57.3331 61.4699ZM97.9387 52.9504C97.9387 58.1324 93.5784 62.3482 88.2188 62.3482C82.8592 62.3482 78.4989 58.1324 78.4989 52.9504C78.4989 47.7685 82.8592 43.5527 88.2188 43.5527C93.5784 43.5966 97.9387 47.8124 97.9387 52.9504ZM77.0455 35.1211C83.2226 35.1211 88.8547 37.712 92.7154 41.8839C91.3074 41.357 89.7631 41.0496 88.1734 41.0496C83.268 41.0496 78.9985 43.8601 77 47.9002C75.047 43.8601 70.7775 41.0496 65.8267 41.0496C64.237 41.0496 62.6927 41.357 61.3301 41.8839C65.2816 37.712 70.8683 35.1211 77.0455 35.1211ZM65.9175 43.5966C71.2771 43.5966 75.6374 47.8124 75.6374 52.9943C75.6374 58.1763 71.2771 62.3921 65.9175 62.3921C60.558 62.3921 56.1976 58.1763 56.1976 52.9943C56.1976 47.8124 60.558 43.5966 65.9175 43.5966Z" fill="#ccc"/>
</svg>
