<svg width="63" height="38" viewBox="0 0 63 38" fill="none" xmlns="http://www.w3.org/2000/svg">
<path d="M54.0087 34.9593L54.0087 19.0947C54.0087 19.0947 41.7705 20.6552 31.2334 25.8803C20.6962 20.6552 8.45805 19.0947 8.45805 19.0947L8.45805 34.9593C4.86693 35.7632 1.96095 36.7325 2.41136e-09 37.8438C6.61524 35.7632 18.121 34.3682 31.2097 34.3682C44.2985 34.3682 55.8043 35.7395 62.4195 37.8438C60.4822 36.7325 57.5998 35.7632 54.0087 34.9593Z" fill="#0B7077"/>
<path d="M11.7893 17.3921L11.7893 19.6382C16.1365 20.4657 24.0747 22.3099 31.2334 25.88C22.7753 19.2363 11.7893 17.3921 11.7893 17.3921Z" fill="#0B7077"/>
<path d="M50.701 17.3921C50.701 17.3921 39.715 19.2363 31.257 25.88C38.4156 22.3335 46.3539 20.4657 50.701 19.6382L50.701 17.3921Z" fill="#0B7077"/>
<path d="M31.257 17.605C30.8081 18.598 30.123 19.4728 29.3197 20.1584L31.2334 23.4921L33.1943 20.1584C32.3674 19.4728 31.7059 18.598 31.257 17.605Z" fill="#0B7077"/>
<path d="M25.4452 15.1223C26.721 15.1223 27.7841 14.082 27.7841 12.7816C27.7841 11.5049 26.7446 10.4409 25.4452 10.4409C24.1694 10.4409 23.1062 11.4812 23.1062 12.7816C23.1062 14.082 24.1457 15.1223 25.4452 15.1223ZM24.6655 11.1502C25.1617 11.1502 25.5633 11.5521 25.5633 12.0487C25.5633 12.5452 25.1617 12.9471 24.6655 12.9471C24.1694 12.9471 23.7677 12.5452 23.7677 12.0487C23.7677 11.5521 24.1694 11.1502 24.6655 11.1502Z" fill="#0B7077"/>
<path d="M34.7064 12.7816C34.7064 14.0583 35.746 15.1223 37.0218 15.1223C38.2975 15.1223 39.3607 14.082 39.3607 12.7816C39.3607 11.5049 38.3212 10.4409 37.0218 10.4409C35.7696 10.4646 34.7064 11.5049 34.7064 12.7816ZM37.3053 12.0487C37.3053 12.5452 36.9036 12.9471 36.4075 12.9471C35.9113 12.9471 35.5097 12.5452 35.5097 12.0487C35.5097 11.5521 35.9113 11.1502 36.4075 11.1502C36.9036 11.1502 37.3053 11.5521 37.3053 12.0487Z" fill="#0B7077"/>
<path d="M20.9798 17.3685C22.1375 18.5034 23.7204 19.189 25.4451 19.189C27.9967 19.189 30.2175 17.6758 31.257 15.5007C32.2729 17.6758 34.4938 19.189 37.069 19.189C38.8173 19.189 40.3766 18.4797 41.5343 17.3685C42.0304 18.0778 42.4557 18.8344 42.8101 19.6146C44.2513 19.0708 45.5743 18.6689 46.732 18.3378C45.9759 16.7774 44.7946 15.3825 43.3062 14.2003C43.4007 13.7511 43.4716 13.2546 43.4716 12.7817C43.4716 11.836 43.259 10.9375 42.8809 10.11C42.4321 8.78601 41.7469 7.55656 40.8728 6.46898L40.8255 0.15625L35.5806 2.61514C34.2103 2.09499 32.7455 1.83492 31.257 1.83492C29.7686 1.83492 28.3038 2.09499 26.9335 2.61514L21.6649 0.15625L21.6177 6.46898C20.7672 7.55656 20.082 8.76236 19.6331 10.0627C19.2551 10.8902 19.0188 11.8123 19.0188 12.7817C19.0188 13.2782 19.0661 13.7511 19.1842 14.2003C17.6958 15.3825 16.5381 16.7774 15.7821 18.3378C16.9161 18.6689 18.2628 19.0944 19.704 19.6146C20.0584 18.8344 20.4836 18.0778 20.9798 17.3685ZM42.1013 12.7817C42.1013 15.5716 39.8332 17.8413 37.0454 17.8413C34.2575 17.8413 31.9894 15.5716 31.9894 12.7817C31.9894 9.99181 34.2575 7.72207 37.0454 7.72207C39.8332 7.74571 42.1013 10.0155 42.1013 12.7817ZM31.2334 3.18258C34.4465 3.18258 37.3761 4.57752 39.3843 6.82362C38.6519 6.53991 37.8486 6.37441 37.0217 6.37441C34.4701 6.37441 32.2493 7.88757 31.2098 10.0627C30.1939 7.88757 27.973 6.37441 25.3978 6.37441C24.5709 6.37441 23.7676 6.53991 23.0589 6.82362C25.1143 4.57752 28.0203 3.18258 31.2334 3.18258ZM25.4451 7.74571C28.2329 7.74571 30.501 10.0155 30.501 12.8053C30.501 15.5952 28.2329 17.865 25.4451 17.865C22.6572 17.865 20.3891 15.5952 20.3891 12.8053C20.3891 10.0155 22.6572 7.74571 25.4451 7.74571Z" fill="#0B7077"/>
</svg>
